HIERARCHY
ROOT Hips
{
  OFFSET 91.2244 90.026 26.1335
  CHANNELS 6 Xposition Yposition Zposition Zrotation Xrotation Yrotation
  JOINT RightUpLeg
  {
    OFFSET -9.26543 -1.55198 -0.00276407
    CHANNELS 3 Zrotation Xrotation Yrotation
    JOINT RightLeg
    {
      OFFSET 0.00706465 -41.889 0.0798854
      CHANNELS 3 Zrotation Xrotation Yrotation
      JOINT RightFoot
      {
        OFFSET -1.51766 -41.6901 -0.263239
        CHANNELS 3 Zrotation Xrotation Yrotation
        End Site
        {
          OFFSET 0 -7.69 17.5
        }
      }
    }
  }
  JOINT LeftUpLeg
  {
    OFFSET 9.33035 -1.6331 0.002402
    CHANNELS 3 Zrotation Xrotation Yrotation
    JOINT LeftLeg
    {
      OFFSET 0.0774 -41.8788 0.006528
      CHANNELS 3 Zrotation Xrotation Yrotation
      JOINT LeftFoot
      {
        OFFSET 0.406189 -42.2791 -0.67832
        CHANNELS 3 Zrotation Xrotation Yrotation
        End Site
        {
          OFFSET 0 -7.69 17.5
        }
      }
    }
  }
  JOINT Spine
  {
    OFFSET 0.0210118 14.3125 0.030377
    CHANNELS 3 Zrotation Xrotation Yrotation
    JOINT Spine1
    {
      OFFSET -2.02627e-05 9.71981 0.0121962
      CHANNELS 3 Zrotation Xrotation Yrotation
      JOINT Spine2
      {
        OFFSET 0.023812 10.122 0.0180119
        CHANNELS 3 Zrotation Xrotation Yrotation
        JOINT Spine3
        {
          OFFSET 0.00443321 9.71861 0.0143853
          CHANNELS 3 Zrotation Xrotation Yrotation
          JOINT Neck
          {
            OFFSET -0.025003 10.3767 0.0233355
            CHANNELS 3 Zrotation Xrotation Yrotation
            JOINT Head
            {
              OFFSET -0.00975384 9.4764 0.045578
              CHANNELS 3 Zrotation Xrotation Yrotation
              End Site
              {
                OFFSET 0 15.95 0
              }
            }
          }
          JOINT RightShoulder
          {
            OFFSET -3.18407 6.9358 0.0313291
            CHANNELS 3 Zrotation Xrotation Yrotation
            JOINT RightArm
            {
              OFFSET -12.7601 0.0147069 0.0234973
              CHANNELS 3 Zrotation Xrotation Yrotation
              JOINT RightForeArm
              {
                OFFSET -26.4708 -0.032683 0.042111
                CHANNELS 3 Zrotation Xrotation Yrotation
                JOINT RightHand
                {
                  OFFSET -26.0234 -0.0283521 0.00388791
                  CHANNELS 3 Zrotation Xrotation Yrotation
                  JOINT RightHandThumb1
                  {
                    OFFSET -2.48905 0.190105 3.12053
                    CHANNELS 3 Zrotation Xrotation Yrotation
                    JOINT RightHandThumb2
                    {
                      OFFSET -3.68274 0 0
                      CHANNELS 3 Zrotation Xrotation Yrotation
                      JOINT RightHandThumb3
                      {
                        OFFSET -2.55832 0 0
                        CHANNELS 3 Zrotation Xrotation Yrotation
                        End Site
                        {
                          OFFSET -2.194 0 0
                        }
                      }
                    }
                  }
                  JOINT RightInHandIndex
                  {
                    OFFSET -3.22368 0.508421 1.97842
                    CHANNELS 3 Zrotation Xrotation Yrotation
                    JOINT RightHandIndex1
                    {
                      OFFSET -5.21684 -0.091368 0.999158
                      CHANNELS 3 Zrotation Xrotation Yrotation
                      JOINT RightHandIndex2
                      {
                        OFFSET -3.61937 0 0
                        CHANNELS 3 Zrotation Xrotation Yrotation
                        JOINT RightHandIndex3
                        {
                          OFFSET -2.0521 0 0
                          CHANNELS 3 Zrotation Xrotation Yrotation
                          End Site
                          {
                            OFFSET -1.805 0 0
                          }
                        }
                      }
                    }
                  }
                  JOINT RightInHandMiddle
                  {
                    OFFSET -3.38211 0.517263 0.756737
                    CHANNELS 3 Zrotation Xrotation Yrotation
                    JOINT RightHandMiddle1
                    {
                      OFFSET -5.17411 -0.084 0.313895
                      CHANNELS 3 Zrotation Xrotation Yrotation
                      JOINT RightHandMiddle2
                      {
                        OFFSET -3.94947 0 0
                        CHANNELS 3 Zrotation Xrotation Yrotation
                        JOINT RightHandMiddle3
                        {
                          OFFSET -2.47579 0 0
                          CHANNELS 3 Zrotation Xrotation Yrotation
                          End Site
                          {
                            OFFSET -1.975 0 0
                          }
                        }
                      }
                    }
                  }
                  JOINT RightInHandRing
                  {
                    OFFSET -3.36516 0.537895 -0.128947
                    CHANNELS 3 Zrotation Xrotation Yrotation
                    JOINT RightHandRing1
                    {
                      OFFSET -4.63474 -0.022105 -0.478947
                      CHANNELS 3 Zrotation Xrotation Yrotation
                      JOINT RightHandRing2
                      {
                        OFFSET -3.44238 0 0
                        CHANNELS 3 Zrotation Xrotation Yrotation
                        JOINT RightHandRing3
                        {
                          OFFSET -2.3881 0 0
                          CHANNELS 3 Zrotation Xrotation Yrotation
                          End Site
                          {
                            OFFSET -1.857 0 0
                          }
                        }
                      }
                    }
                  }
                  JOINT RightInHandPinky
                  {
                    OFFSET -3.16105 0.469368 -1.20179
                    CHANNELS 3 Zrotation Xrotation Yrotation
                    JOINT RightHandPinky1
                    {
                      OFFSET -4.14105 -0.022105 -1.09053
                      CHANNELS 3 Zrotation Xrotation Yrotation
                      JOINT RightHandPinky2
                      {
                        OFFSET -2.75653 0 0
                        CHANNELS 3 Zrotation Xrotation Yrotation
                        JOINT RightHandPinky3
                        {
                          OFFSET -1.74189 0 0
                          CHANNELS 3 Zrotation Xrotation Yrotation
                          End Site
                          {
                            OFFSET -1.645 0 0
                          }
                        }
                      }
                    }
                  }
                }
              }
            }
          }
          JOINT LeftShoulder
          {
            OFFSET 3.21192 6.92101 0.01407
            CHANNELS 3 Zrotation Xrotation Yrotation
            JOINT LeftArm
            {
              OFFSET 12.7303 -0.00466279 0.011464
              CHANNELS 3 Zrotation Xrotation Yrotation
              JOINT LeftForeArm
              {
                OFFSET 26.497 -0.127446 0.0273404
                CHANNELS 3 Zrotation Xrotation Yrotation
                JOINT LeftHand
                {
                  OFFSET 26.0093 -0.0453415 -0.0774742
                  CHANNELS 3 Zrotation Xrotation Yrotation
                  JOINT LeftHandThumb1
                  {
                    OFFSET 2.48905 0.190105 3.12053
                    CHANNELS 3 Zrotation Xrotation Yrotation
                    JOINT LeftHandThumb2
                    {
                      OFFSET 3.68274 0 0
                      CHANNELS 3 Zrotation Xrotation Yrotation
                      JOINT LeftHandThumb3
                      {
                        OFFSET 2.55832 0 0
                        CHANNELS 3 Zrotation Xrotation Yrotation
                        End Site
                        {
                          OFFSET 2.194 0 0
                        }
                      }
                    }
                  }
                  JOINT LeftInHandIndex
                  {
                    OFFSET 3.22368 0.508421 1.97842
                    CHANNELS 3 Zrotation Xrotation Yrotation
                    JOINT LeftHandIndex1
                    {
                      OFFSET 5.21684 -0.091368 0.999158
                      CHANNELS 3 Zrotation Xrotation Yrotation
                      JOINT LeftHandIndex2
                      {
                        OFFSET 3.61937 0 0
                        CHANNELS 3 Zrotation Xrotation Yrotation
                        JOINT LeftHandIndex3
                        {
                          OFFSET 2.0521 0 0
                          CHANNELS 3 Zrotation Xrotation Yrotation
                          End Site
                          {
                            OFFSET 1.805 0 0
                          }
                        }
                      }
                    }
                  }
                  JOINT LeftInHandMiddle
                  {
                    OFFSET 3.38211 0.517263 0.756737
                    CHANNELS 3 Zrotation Xrotation Yrotation
                    JOINT LeftHandMiddle1
                    {
                      OFFSET 5.17411 -0.084 0.313895
                      CHANNELS 3 Zrotation Xrotation Yrotation
                      JOINT LeftHandMiddle2
                      {
                        OFFSET 3.94947 0 0
                        CHANNELS 3 Zrotation Xrotation Yrotation
                        JOINT LeftHandMiddle3
                        {
                          OFFSET 2.47579 0 0
                          CHANNELS 3 Zrotation Xrotation Yrotation
                          End Site
                          {
                            OFFSET 1.975 0 0
                          }
                        }
                      }
                    }
                  }
                  JOINT LeftInHandRing
                  {
                    OFFSET 3.36516 0.537895 -0.128947
                    CHANNELS 3 Zrotation Xrotation Yrotation
                    JOINT LeftHandRing1
                    {
                      OFFSET 4.63474 -0.022105 -0.478947
                      CHANNELS 3 Zrotation Xrotation Yrotation
                      JOINT LeftHandRing2
                      {
                        OFFSET 3.44238 0 0
                        CHANNELS 3 Zrotation Xrotation Yrotation
                        JOINT LeftHandRing3
                        {
                          OFFSET 2.3881 0 0
                          CHANNELS 3 Zrotation Xrotation Yrotation
                          End Site
                          {
                            OFFSET 1.857 0 0
                          }
                        }
                      }
                    }
                  }
                  JOINT LeftInHandPinky
                  {
                    OFFSET 3.16105 0.469368 -1.20179
                    CHANNELS 3 Zrotation Xrotation Yrotation
                    JOINT LeftHandPinky1
                    {
                      OFFSET 4.14105 -0.022105 -1.09053
                      CHANNELS 3 Zrotation Xrotation Yrotation
                      JOINT LeftHandPinky2
                      {
                        OFFSET 2.75653 0 0
                        CHANNELS 3 Zrotation Xrotation Yrotation
                        JOINT LeftHandPinky3
                        {
                          OFFSET 1.74189 0 0
                          CHANNELS 3 Zrotation Xrotation Yrotation
                          End Site
                          {
                            OFFSET 1.645 0 0
                          }
                        }
                      }
                    }
                  }
                }
              }
            }
          }
        }
      }
    }
  }
}
MOTION
Frames:	4
Frame Time:	0.00833333
97.9319 89.3578 27.4704 22.3205 -23.4646 -141.137 -19.8581 -56.5902 -18.7535 5.50105 22.6362 5.98168 8.95576 3.33208 1.10511 28.9273 -47.9145 39.6635 -1.38067 19.6895 -24.3437 -7.24177 0.829468 33.9232 -1.92951 10.5492 5.69521 -0.381583 2.74431 1.40371 -0.667844 4.58422 2.35957 0.478375 0.190637 -0.872643 0.480381 0.199436 -0.877257 9.34667 3.31501 -16.3678 -2.16704 -2.96549 10.588 76.3451 8.31973 72.1813 -6.01273 -19.5471 -18.6636 4.97163 -29.509 1.31946 28.184 10.7294 19.1592 -3.63332e-15 0 -10 -8.07405e-15 0 -10 7.95139e-16 3.18055e-15 -3.97569e-16 19.9818 0.871897 2.3964 24 0 6.36111e-15 20 -7.95139e-16 -6.36111e-15 7.95139e-16 3.18055e-15 -3.97569e-16 20 -4.77083e-15 -0 24 -3.18055e-15 -0 20 2.38542e-15 9.54166e-15 7.95139e-16 3.18055e-15 -3.97569e-16 19.9748 -1.02565 -2.81938 24 -3.18055e-15 -3.18055e-15 20 -1.19271e-15 3.18055e-15 7.95139e-16 3.18055e-15 -3.97569e-16 19.7815 -3.00948 -8.30515 24 3.18055e-15 -6.36111e-15 20 7.95139e-16 -3.18055e-15 -7.92581 -8.14231 -21.1749 -43.9614 31.8474 -56.3128 -47.6192 -86.012 -48.7149 -7.90308 -71.2711 -4.11782 -28.184 10.7294 -19.1592 -4.91207e-15 9.54166e-15 10 3.79044e-15 -3.18055e-15 10 6.36111e-15 -3.18055e-15 -0 -19.9818 0.871897 -2.3964 -24 -1.59028e-15 3.18055e-15 -20 -7.57867e-16 1.59028e-14 6.36111e-15 -3.18055e-15 -0 -20 0 3.18055e-15 -24 -1.59028e-15 6.36111e-15 -20 -7.95139e-15 1.27222e-14 6.36111e-15 -3.18055e-15 -0 -19.9748 -1.02565 2.81938 -24 -9.54166e-15 9.54166e-15 -20 -7.95139e-15 9.54166e-15 6.36111e-15 -3.18055e-15 -0 -19.7815 -3.00948 8.30515 -24 8.74653e-15 6.36111e-15 -20 -3.97569e-15 6.36111e-15 
97.936 89.354 27.4677 22.3139 -23.4679 -141.15 -19.8231 -56.6132 -18.7204 5.48514 22.6566 6.0105 8.95465 3.33071 1.0787 28.9629 -47.8965 39.7105 -1.38362 19.7059 -24.3385 -7.25145 0.810441 33.902 -1.93107 10.5382 5.6934 -0.383141 2.74158 1.40374 -0.670387 4.58155 2.35952 0.478196 0.190885 -0.872279 0.480191 0.199074 -0.876886 9.33114 3.3319 -16.3547 -2.14015 -2.93509 10.6088 76.3488 8.29647 72.1661 -5.99834 -19.5083 -18.6235 4.96328 -29.5152 1.29969 28.184 10.7294 19.1592 3.22962e-15 0 -10 1.61481e-15 0 -10 -4.96962e-16 3.18055e-15 7.95139e-16 19.9818 0.871897 2.3964 24 -1.59028e-15 1.59028e-15 20 -1.59028e-15 3.18055e-15 -4.96962e-16 3.18055e-15 7.95139e-16 20 3.18055e-15 1.59028e-15 24 -1.59028e-15 3.18055e-15 20 4.77083e-15 -3.18055e-15 -4.96962e-16 3.18055e-15 7.95139e-16 19.9748 -1.02565 -2.81938 24 -1.59028e-15 -6.36111e-15 20 0 -0 -4.96962e-16 3.18055e-15 7.95139e-16 19.7815 -3.00948 -8.30515 24 0 -3.18055e-15 20 -7.95139e-16 -0 -7.92346 -8.12656 -21.1562 -43.9625 31.8492 -56.3126 -47.6169 -86.013 -48.7132 -7.96659 -71.2747 -4.18881 -28.184 10.7294 -19.1592 -4.25532e-16 -1.59028e-14 10 -8.00641e-15 -9.54166e-15 10 3.18055e-15 0 -4.77083e-15 -19.9818 0.871897 -2.3964 -24 4.77083e-15 9.54166e-15 -20 -2.90723e-15 -1.59028e-14 3.18055e-15 0 -4.77083e-15 -20 3.18055e-15 -3.18055e-15 -24 -4.77083e-15 -0 -20 3.57812e-15 -9.54166e-15 3.18055e-15 0 -4.77083e-15 -19.9748 -1.02565 2.81938 -24 -4.77083e-15 3.18055e-15 -20 2.78299e-15 -9.54166e-15 3.18055e-15 0 -4.77083e-15 -19.7815 -3.00948 8.30515 -24 -7.15625e-15 9.54166e-15 -20 -2.38542e-15 -1.59028e-14 
97.9397 89.3517 27.4648 22.3051 -23.4726 -141.168 -19.7953 -56.6373 -18.6759 5.47509 22.6801 6.02337 8.95263 3.32713 1.0569 28.9983 -47.8782 39.758 -1.38788 19.7183 -24.3344 -7.26376 0.792409 33.8882 -1.93305 10.5283 5.68554 -0.384716 2.7385 1.40378 -0.673016 4.57713 2.35945 0.478015 0.191129 -0.871902 0.48 0.198733 -0.876502 9.31077 3.35755 -16.331 -2.10874 -2.90421 10.622 76.3253 8.28479 72.1556 -5.98857 -19.4618 -18.5902 4.97462 -29.5353 1.28342 28.184 10.7294 19.1592 2.76973e-15 -3.18055e-15 -10 -1.08105e-14 -6.36111e-15 -10 -8.94531e-16 0 -3.97569e-16 19.9818 0.871897 2.3964 24 1.59028e-15 1.11319e-14 20 7.95139e-16 -3.18055e-15 -8.94531e-16 0 -3.97569e-16 20 7.95139e-15 1.59028e-15 24 1.59028e-15 4.77083e-15 20 -1.59028e-15 3.18055e-15 -8.94531e-16 0 -3.97569e-16 19.9748 -1.02565 -2.81938 24 1.59028e-15 -0 20 3.57812e-15 1.90833e-14 -8.94531e-16 0 -3.97569e-16 19.7815 -3.00948 -8.30515 24 0 6.36111e-15 20 -7.95139e-16 -0 -7.92847 -8.11289 -21.1306 -43.9628 31.8496 -56.312 -47.617 -86.013 -48.7132 -8.06927 -71.2795 -4.29003 -28.184 10.7294 -19.1592 1.68245e-15 -9.54166e-15 10 -0 0 10 -1.59028e-15 -3.18055e-15 -6.36111e-15 -19.9818 0.871897 -2.3964 -24 -3.18055e-15 1.27222e-14 -20 -3.64024e-15 6.36111e-15 -1.59028e-15 -3.18055e-15 -6.36111e-15 -20 -6.36111e-15 -6.36111e-15 -24 3.18055e-15 -0 -20 -1.98785e-15 3.18055e-15 -1.59028e-15 -3.18055e-15 -6.36111e-15 -19.9748 -1.02565 2.81938 -24 0 6.36111e-15 -20 -9.54166e-15 -6.36111e-15 -1.59028e-15 -3.18055e-15 -6.36111e-15 -19.7815 -3.00948 8.30515 -24 0 3.18055e-15 -20 3.18055e-15 3.18055e-15 
97.9402 89.3506 27.4602 22.2951 -23.4775 -141.186 -19.753 -56.6508 -18.6363 5.45954 22.685 6.05311 8.94821 3.32601 1.03593 29.0303 -47.8597 39.8048 -1.39672 19.7344 -24.3421 -7.26802 0.77277 33.8811 -1.93921 10.5164 5.67478 -0.386029 2.73541 1.40064 -0.67589 4.5719 2.3539 0.477829 0.191368 -0.871512 0.479803 0.198417 -0.876104 9.29409 3.38539 -16.3007 -2.07318 -2.86633 10.6399 76.2838 8.28547 72.1509 -5.97505 -19.4342 -18.5449 4.84888 -29.5608 1.29596 28.184 10.7294 19.1592 6.80675e-15 -3.18055e-15 -10 4.28361e-15 -3.18055e-15 -10 1.49089e-15 0 -3.97569e-16 19.9818 0.871897 2.3964 24 -1.59028e-15 -1.59028e-15 20 -1.59028e-15 9.54166e-15 1.49089e-15 0 -3.97569e-16 20 -4.77083e-15 -1.59028e-15 24 -3.18055e-15 -3.18055e-15 20 -3.18055e-15 6.36111e-15 1.49089e-15 0 -3.97569e-16 19.9748 -1.02565 -2.81938 24 6.36111e-15 3.18055e-15 20 3.97569e-16 9.54166e-15 1.49089e-15 0 -3.97569e-16 19.7815 -3.00948 -8.30515 24 0 -0 20 2.78299e-15 -3.18055e-15 -7.91146 -8.10066 -21.09 -43.9873 31.8583 -56.3199 -48.0398 -85.9738 -49.1393 -8.12904 -71.2707 -4.41433 -28.184 10.7294 -19.1592 -9.68886e-15 0 10 1.76953e-14 9.54166e-15 10 -1.59028e-15 6.36111e-15 -0 -19.9818 0.871897 -2.3964 -24 0 3.18055e-15 -20 -2.93945e-15 6.36111e-15 -1.59028e-15 6.36111e-15 -0 -20 0 3.18055e-15 -24 -9.54166e-15 1.90833e-14 -20 9.93923e-16 -0 -1.59028e-15 6.36111e-15 -0 -19.9748 -1.02565 2.81938 -24 1.59028e-15 9.54166e-15 -20 -2.38542e-15 1.27222e-14 -1.59028e-15 6.36111e-15 -0 -19.7815 -3.00948 8.30515 -24 0 9.54166e-15 -20 -1.59028e-15 9.54166e-15 
